<?xml version="1.0" encoding="UTF-8"?>
<svg id="Layer_2" data-name="Layer 2" xmlns="http://www.w3.org/2000/svg" viewBox="0 0 80.98 81.08">
  <defs>
    <style>
      .cls-1 {
        fill: white;
      }
    </style>
  </defs>
  <g id="Layer_1-2" data-name="Layer 1">
    <g>
      <path class="cls-1" d="m30.21,81.08c-6.8,0-16.11-1.27-21.89-7.33C-.5,64.51-.01,40.33.01,39.3c.02-.82.69-1.46,1.5-1.46.01,0,.03,0,.04,0,1.03.02,25.23.72,34.05,9.96,10.61,11.12,5.27,30.63,5.04,31.46-.15.55-.6.96-1.16,1.07-.16.03-4.05.76-9.26.76ZM3.01,40.91c.04,5.41.7,23.67,7.48,30.77,5.05,5.29,13.51,6.4,19.72,6.4,3.47,0,6.35-.35,7.76-.56.88-3.87,3.67-19.04-4.55-27.66-6.78-7.11-25.01-8.66-30.42-8.96Z"/>
      <path class="cls-1" d="m39.19,80.35c-.4,0-.79-.16-1.08-.46L.94,40.99c-.57-.6-.55-1.55.05-2.12s1.55-.55,2.12.05l37.16,38.9c.57.6.55,1.55-.05,2.12-.29.28-.66.42-1.04.42Z"/>
      <path class="cls-1" d="m46.64,68.59c-1.96,0-3.92-.17-5.83-.49-.82-.14-1.37-.92-1.23-1.73s.91-1.37,1.73-1.23c1.74.3,3.54.45,5.33.45,17.28,0,31.34-14.04,31.34-31.3S63.92,3,46.64,3s-31.34,14.04-31.34,31.3c0,2.34.15,3.93.55,5.85.17.81-.35,1.6-1.17,1.77-.82.17-1.6-.35-1.77-1.17-.44-2.12-.61-3.93-.61-6.46C12.3,15.39,27.71,0,46.64,0s34.34,15.39,34.34,34.3-15.4,34.3-34.34,34.3Z"/>
      <path class="cls-1" d="m79.48,35.8H13.8c-.83,0-1.5-.67-1.5-1.5s.67-1.5,1.5-1.5h65.68c.83,0,1.5.67,1.5,1.5s-.67,1.5-1.5,1.5Z"/>
      <path class="cls-1" d="m75.52,20.17H17.88c-.83,0-1.5-.67-1.5-1.5s.67-1.5,1.5-1.5h57.64c.83,0,1.5.67,1.5,1.5s-.67,1.5-1.5,1.5Z"/>
      <path class="cls-1" d="m75.91,50.62h-40.75c-.83,0-1.5-.67-1.5-1.5s.67-1.5,1.5-1.5h40.75c.83,0,1.5.67,1.5,1.5s-.67,1.5-1.5,1.5Z"/>
      <path class="cls-1" d="m46.64,67.88c-.22,0-.44-.05-.64-.15-.52-.25-.86-.78-.86-1.35V1.87c0-.83.67-1.5,1.5-1.5.13,0,.27.02.39.05.45-.12.96-.03,1.35.29.6.5,14.68,12.44,14.68,33.23s-14.84,33.09-15.47,33.6c-.27.22-.61.34-.95.34Zm1.5-63.24v58.21c4.1-4.37,11.92-14.58,11.92-28.91,0-15.21-8.28-25.51-11.92-29.3Z"/>
      <path class="cls-1" d="m46.64,67.88c-.37,0-.73-.13-1.02-.4-.19-.18-4.65-4.38-7.73-9.81-.41-.72-.16-1.64.56-2.04.72-.41,1.64-.16,2.04.56,2.85,5.03,7.13,9.06,7.17,9.1.6.57.64,1.52.07,2.12-.29.32-.69.48-1.1.48Z"/>
      <path class="cls-1" d="m35.16,50.62c-.55,0-1.08-.3-1.34-.83-1.67-3.33-3.59-8.14-3.59-15.85C30.22,13.16,44.17,1.22,44.76.72c.63-.53,1.58-.45,2.11.18.53.63.45,1.58-.18,2.11-.13.11-13.47,11.58-13.47,30.92,0,7.04,1.66,11.28,3.27,14.51.37.74.07,1.64-.67,2.01-.22.11-.45.16-.67.16Z"/>
    </g>
  </g>
</svg>