<?xml version="1.0" encoding="UTF-8"?>
<svg id="Layer_2" data-name="Layer 2" xmlns="http://www.w3.org/2000/svg" viewBox="0 0 68.85 81">
  <defs>
    <style>
      .cls-1 {
        fill: #bb6125;
      }
    </style>
  </defs>
  <g id="Layer_1-2" data-name="Layer 1">
    <g>
      <path class="cls-1" d="m23.35,55.1c-1.49,0-2.55-.65-3.36-1.14-.87-.53-1.39-.85-2.38-.64-.81.18-1.61-.33-1.79-1.14-.18-.81.33-1.61,1.14-1.79,2.17-.48,3.56.38,4.59,1.01.87.53,1.39.85,2.38.63.99-.22,1.33-.73,1.89-1.57.67-1,1.58-2.36,3.74-2.84,2.17-.48,3.57.38,4.59,1,.87.53,1.4.85,2.38.63.99-.22,1.33-.73,1.89-1.57.67-1,1.58-2.36,3.74-2.84,2.16-.48,3.57.38,4.59,1,.87.53,1.39.85,2.38.63.99-.22,1.33-.73,1.9-1.58.67-1,1.58-2.36,3.75-2.84.81-.18,1.61.33,1.79,1.14.18.81-.33,1.61-1.14,1.79-.99.22-1.33.73-1.9,1.57-.67,1-1.58,2.36-3.75,2.84-2.17.48-3.57-.38-4.59-1-.87-.53-1.39-.85-2.38-.63-.99.22-1.33.73-1.89,1.57-.67,1-1.58,2.36-3.74,2.84-2.17.48-3.57-.38-4.59-1-.87-.53-1.4-.85-2.38-.63-.99.22-1.33.73-1.89,1.57-.67,1-1.58,2.36-3.74,2.84-.44.1-.85.14-1.23.14Z"/>
      <path class="cls-1" d="m21.58,47.03c-1.49,0-2.55-.65-3.36-1.14-.87-.53-1.4-.85-2.38-.63-.81.18-1.61-.33-1.79-1.14-.18-.81.33-1.61,1.14-1.79,2.17-.48,3.56.38,4.59,1,.87.53,1.39.85,2.38.64.99-.22,1.33-.73,1.89-1.57.67-1,1.58-2.36,3.74-2.84,2.17-.48,3.56.38,4.59,1,.87.53,1.39.85,2.38.63.99-.22,1.33-.73,1.89-1.57.67-1,1.58-2.36,3.74-2.84,2.16-.48,3.57.38,4.59,1,.87.53,1.39.85,2.38.63.99-.22,1.33-.73,1.9-1.58.67-1,1.58-2.36,3.75-2.84.81-.18,1.61.33,1.79,1.14.18.81-.33,1.61-1.14,1.79-.99.22-1.33.73-1.9,1.58-.67,1-1.58,2.36-3.74,2.84-2.16.48-3.57-.38-4.59-1-.87-.53-1.39-.85-2.38-.63-.99.22-1.33.73-1.89,1.57-.67,1-1.58,2.36-3.74,2.84-2.17.48-3.57-.38-4.59-1-.87-.53-1.39-.85-2.38-.63-.99.22-1.33.73-1.89,1.57-.67,1-1.58,2.36-3.74,2.84-.44.1-.85.14-1.23.14Z"/>
      <path class="cls-1" d="m19.81,38.96c-1.49,0-2.55-.65-3.36-1.14-.87-.53-1.39-.85-2.38-.63-.81.18-1.61-.33-1.79-1.14-.18-.81.33-1.61,1.14-1.79,2.17-.48,3.56.38,4.59,1,.87.53,1.39.85,2.38.64s1.33-.73,1.89-1.57c.67-1,1.58-2.36,3.74-2.84,2.16-.48,3.56.38,4.59,1,.87.53,1.39.85,2.38.63.99-.22,1.33-.73,1.9-1.58.67-1,1.58-2.36,3.74-2.84,2.17-.48,3.57.38,4.59,1,.87.53,1.4.85,2.38.63.99-.22,1.33-.73,1.9-1.57.67-1,1.58-2.36,3.75-2.84.81-.18,1.61.33,1.79,1.14.18.81-.33,1.61-1.14,1.79-.99.22-1.33.73-1.9,1.58-.67,1-1.58,2.36-3.74,2.84-2.17.48-3.57-.38-4.59-1-.87-.53-1.4-.85-2.38-.63-.99.22-1.33.73-1.89,1.57-.67,1-1.58,2.36-3.75,2.84s-3.57-.38-4.59-1c-.87-.53-1.39-.85-2.38-.63-.99.22-1.33.73-1.89,1.57-.67,1-1.58,2.36-3.74,2.84-.44.1-.85.14-1.22.14Z"/>
      <path class="cls-1" d="m62.46,47.43c-.83,0-1.5-.67-1.5-1.5V6.67h-6.91c-.83,0-1.5-.67-1.5-1.5s.67-1.5,1.5-1.5h8.41c.83,0,1.5.67,1.5,1.5v40.76c0,.83-.67,1.5-1.5,1.5Z"/>
      <path class="cls-1" d="m9.17,12.1c-.83,0-1.5-.67-1.5-1.5v-5.43c0-.83.67-1.5,1.5-1.5h26.51c.83,0,1.5.67,1.5,1.5s-.67,1.5-1.5,1.5H10.67v3.93c0,.83-.67,1.5-1.5,1.5Z"/>
      <path class="cls-1" d="m14.8,77.33h-5.63c-.83,0-1.5-.67-1.5-1.5v-27.95c0-.83.67-1.5,1.5-1.5s1.5.67,1.5,1.5v26.45h4.13c.83,0,1.5.67,1.5,1.5s-.67,1.5-1.5,1.5Z"/>
      <path class="cls-1" d="m62.46,77.33h-29.56c-.83,0-1.5-.67-1.5-1.5s.67-1.5,1.5-1.5h28.06v-4.58c0-.83.67-1.5,1.5-1.5s1.5.67,1.5,1.5v6.08c0,.83-.67,1.5-1.5,1.5Z"/>
      <path class="cls-1" d="m16.13,81c-.28,0-.57-.08-.81-.24-.33-.21-.57-.55-.66-.94L.04,13.04c-.09-.39-.01-.79.2-1.13.21-.33.55-.57.94-.66L52.41.04c.82-.18,1.61.34,1.79,1.14l14.63,66.78c.18.81-.33,1.61-1.14,1.79l-51.23,11.22c-.11.02-.21.03-.32.03ZM3.29,13.86l13.98,63.85,48.3-10.58L51.58,3.29,3.29,13.86Z"/>
    </g>
  </g>
</svg>