<?xml version="1.0" encoding="UTF-8"?>
<svg id="Layer_2" data-name="Layer 2" xmlns="http://www.w3.org/2000/svg" viewBox="0 0 81 81">
  <defs>
    <style>
      .cls-1 {
        fill: white;
      }
    </style>
  </defs>
  <g id="Layer_1-2" data-name="Layer 1">
    <g>
      <path class="cls-1" d="m51.96,66.28c-.83,0-1.5-.67-1.5-1.5v-5.41c-9.42-.76-16.84-8.67-16.84-18.28,0-.75.55-1.38,1.29-1.49,5.49-.77,9.92.27,13.17,3.09,1.86,1.62,3.08,3.61,3.88,5.53.8-1.92,2.01-3.91,3.88-5.53,3.25-2.83,7.68-3.87,13.17-3.09.74.1,1.29.74,1.29,1.49,0,9.61-7.42,17.51-16.83,18.28v5.41c0,.83-.67,1.5-1.5,1.5Zm-15.29-23.86c.64,7.34,6.47,13.22,13.79,13.93v-.89c0-.05,0-.11,0-.16,0-.02,0-.09,0-.19-.05-1.1-.48-6.81-4.36-10.17-2.31-2-5.47-2.84-9.42-2.52Zm16.78,12.69c0,.1,0,.16,0,.19v1.05c7.32-.72,13.14-6.59,13.78-13.93-3.96-.32-7.12.53-9.42,2.52-3.88,3.36-4.31,9.06-4.36,10.17Z"/>
      <path class="cls-1" d="m76.93,72.72c-.83,0-1.5-.67-1.5-1.5V20.39l-23.06,15.69c-.46.31-1.05.35-1.54.09-.49-.26-.8-.77-.8-1.33v-13.58l-23.14,13.8c-.71.42-1.63.19-2.06-.52-.42-.71-.19-1.63.52-2.06l25.41-15.16c.46-.28,1.04-.28,1.51-.02.47.27.76.76.76,1.3v13.39l23.06-15.69c.46-.31,1.06-.35,1.54-.09.49.26.8.77.8,1.33v53.67c0,.83-.67,1.5-1.5,1.5Z"/>
      <path class="cls-1" d="m3.83,73.06s-.06,0-.09,0c-.83-.05-1.46-.76-1.41-1.59L6.63,1.42C6.68.63,7.34.01,8.13.01h15.84c.79,0,1.45.62,1.5,1.41l4.3,69.9c.05.83-.58,1.54-1.41,1.59-.85.05-1.54-.58-1.59-1.4L22.56,3.01h-13.02l-4.21,68.64c-.05.8-.71,1.41-1.5,1.41Z"/>
      <path class="cls-1" d="m58.74,31.08s-.06,0-.09,0c-.83-.05-1.46-.76-1.41-1.58l1.63-28.08c.05-.79.7-1.41,1.5-1.41h9.5c.79,0,1.45.61,1.5,1.4l1.29,19.75c.05.83-.57,1.54-1.4,1.59-.82.06-1.54-.57-1.59-1.4l-1.2-18.34h-6.68l-1.55,26.66c-.05.8-.71,1.41-1.5,1.41Z"/>
      <path class="cls-1" d="m32.63,31.08s-.06,0-.09,0c-.83-.05-1.46-.76-1.41-1.58l1.63-28.08c.05-.79.7-1.41,1.5-1.41h9.5c.79,0,1.45.62,1.5,1.41l1.29,20.65c.05.83-.58,1.54-1.4,1.59-.85.05-1.54-.58-1.59-1.4l-1.2-19.24h-6.67l-1.55,26.66c-.05.8-.71,1.41-1.5,1.41Z"/>
      <path class="cls-1" d="m79.5,81H1.5c-.83,0-1.5-.67-1.5-1.5v-7.5c0-.83.67-1.5,1.5-1.5h78c.83,0,1.5.67,1.5,1.5v7.5c0,.83-.67,1.5-1.5,1.5Zm-76.5-3h75v-4.5H3v4.5Z"/>
    </g>
  </g>
</svg>