<?xml version="1.0" encoding="UTF-8"?>
<svg id="Layer_2" data-name="Layer 2" xmlns="http://www.w3.org/2000/svg" viewBox="0 0 81 81">
  <defs>
    <style>
      .cls-1 {
        fill: #bb6125;
      }
    </style>
  </defs>
  <g id="Layer_1-2" data-name="Layer 1">
    <g>
      <path class="cls-1" d="m56.05,81c-.17,0-.33-.03-.49-.08-12.63-4.4-17.13-14.42-18.72-20.75h-8.06C12.91,60.17,0,47.26,0,31.4v-2.63C0,12.9,12.91,0,28.77,0h23.46c15.86,0,28.77,12.9,28.77,28.77v2.63c0,15.36-12.1,27.95-27.28,28.73.08,11.22,3.64,18.63,3.67,18.71.27.55.18,1.2-.23,1.66-.29.33-.7.5-1.12.5ZM28.77,3C14.56,3,3,14.56,3,28.77v2.63c0,14.21,11.56,25.77,25.77,25.77h9.25c.71,0,1.32.49,1.47,1.19,1.08,5.04,4.31,13.7,13.88,18.41-1.21-3.64-2.79-9.99-2.64-18.12.02-.82.68-1.47,1.5-1.47,14.21,0,25.77-11.56,25.77-25.77v-2.63c0-14.21-11.56-25.77-25.77-25.77h-23.46Z"/>
      <path class="cls-1" d="m40.5,52.78c-.83,0-1.5-.67-1.5-1.5v-7.35c-10.99-.77-19.7-9.96-19.7-21.14,0-.75.55-1.38,1.29-1.49,6.34-.89,11.46.3,15.2,3.56,2.34,2.03,3.79,4.57,4.7,6.96.91-2.39,2.37-4.93,4.7-6.96,3.74-3.25,8.86-4.45,15.21-3.56.74.1,1.29.74,1.29,1.49,0,11.18-8.7,20.37-19.69,21.14v7.35c0,.83-.67,1.5-1.5,1.5Zm-18.15-28.67c.65,8.92,7.75,16.08,16.65,16.8v-1.34c0-.06,0-.11,0-.17,0-.03,0-.1,0-.21-.05-1.29-.56-8.08-5.18-12.09-2.8-2.43-6.65-3.43-11.46-3Zm19.65,15.08c0,.11,0,.18,0,.21v1.51c8.9-.73,16-7.89,16.64-16.8-4.81-.44-8.66.57-11.46,3-4.63,4.01-5.13,10.8-5.18,12.09Z"/>
      <path class="cls-1" d="m47.96,26.19c-.06,0-.11,0-.17,0-.82-.09-1.41-.83-1.32-1.65h0c.04-.35.79-8.22-5.97-14.16-6.81,5.99-5.98,14.07-5.97,14.15.09.82-.5,1.57-1.32,1.66-.83.09-1.57-.5-1.66-1.32-.05-.43-1.08-10.56,8.03-17.62.54-.42,1.3-.42,1.84,0,9.12,7.06,8.08,17.19,8.03,17.62-.09.77-.74,1.33-1.49,1.33Z"/>
    </g>
  </g>
</svg>