<?xml version="1.0" encoding="UTF-8"?>
<svg id="Layer_2" data-name="Layer 2" xmlns="http://www.w3.org/2000/svg" viewBox="0 0 80.97 81">
  <defs>
    <style>
      .cls-1 {
        fill: #bb6125;
      }
    </style>
  </defs>
  <g id="Layer_1-2" data-name="Layer 1">
    <g>
      <path class="cls-1" d="m49.35,56.03c-6.51,0-12.64-2.54-17.24-7.14-9.51-9.51-9.51-24.98,0-34.49,4.6-4.61,10.73-7.14,17.24-7.14s12.64,2.54,17.24,7.14c9.51,9.51,9.51,24.98,0,34.49-4.61,4.61-10.73,7.14-17.24,7.14Zm0-45.78c-5.71,0-11.08,2.22-15.12,6.26-8.34,8.34-8.34,21.91,0,30.25,4.04,4.04,9.41,6.27,15.12,6.27s11.08-2.23,15.12-6.27c8.34-8.34,8.34-21.91,0-30.25-4.04-4.04-9.41-6.26-15.12-6.26Z"/>
      <path class="cls-1" d="m49.35,63.28c-8.45,0-16.39-3.29-22.37-9.27-12.33-12.34-12.33-32.41,0-44.75C32.95,3.29,40.9,0,49.35,0s16.39,3.29,22.37,9.27c12.33,12.34,12.33,32.41,0,44.75-5.97,5.98-13.92,9.27-22.37,9.27Zm0-60.28c-7.65,0-14.84,2.98-20.25,8.39-11.17,11.17-11.17,29.34,0,40.51,5.41,5.41,12.6,8.39,20.25,8.39s14.84-2.98,20.25-8.39c11.16-11.17,11.16-29.34,0-40.51-5.41-5.41-12.6-8.39-20.25-8.39Z"/>
      <path class="cls-1" d="m20.44,56.07c-.38,0-.77-.15-1.06-.44-.59-.58-.59-1.54,0-2.12l4.68-4.68c.59-.59,1.54-.59,2.12,0,.59.58.59,1.54,0,2.12l-4.68,4.68c-.29.29-.68.44-1.06.44Z"/>
      <path class="cls-1" d="m26.42,62.06c-.38,0-.77-.15-1.06-.44-.59-.58-.59-1.54,0-2.12l4.68-4.68c.59-.59,1.54-.59,2.12,0,.59.58.59,1.54,0,2.12l-4.68,4.68c-.29.29-.68.44-1.06.44Z"/>
      <path class="cls-1" d="m7.88,81c-2.11,0-4.09-.82-5.58-2.3-3.08-3.08-3.08-8.08,0-11.16l13.43-13.44c.85-.85,1.97-1.31,3.17-1.31s2.33.47,3.18,1.31l4.8,4.81c1.75,1.75,1.75,4.6,0,6.35l-13.44,13.44c-1.49,1.48-3.47,2.3-5.58,2.3Zm11.03-25.21c-.4,0-.77.15-1.05.43l-13.43,13.44c-1.91,1.91-1.91,5.01,0,6.92.92.92,2.14,1.42,3.46,1.42s2.54-.5,3.46-1.42l13.43-13.44c.58-.58.58-1.53,0-2.11l-4.8-4.8c-.28-.28-.65-.43-1.05-.43Z"/>
      <path class="cls-1" d="m49.35,50.1c-.83,0-1.5-.67-1.5-1.5v-5.23c-8.35-.76-14.91-7.8-14.91-16.34,0-.75.55-1.38,1.29-1.49,4.91-.69,8.88.24,11.79,2.78,1.55,1.35,2.6,2.99,3.32,4.59.71-1.6,1.77-3.24,3.32-4.59,2.92-2.54,6.89-3.47,11.79-2.78.74.1,1.29.74,1.29,1.49,0,8.54-6.56,15.57-14.9,16.33v5.23c0,.83-.67,1.5-1.5,1.5Zm-13.34-21.72c.63,6.27,5.59,11.28,11.84,11.98v-.58c0-.05,0-.1,0-.15,0-.02,0-.08,0-.17-.04-.97-.42-5.95-3.8-8.87-1.97-1.71-4.67-2.44-8.04-2.21Zm14.84,11.08c0,.09,0,.14,0,.16v.74c6.25-.7,11.21-5.71,11.83-11.98-3.37-.24-6.07.5-8.04,2.21-3.38,2.92-3.76,7.9-3.8,8.87Z"/>
      <path class="cls-1" d="m43.7,29.98c-.75,0-1.4-.57-1.49-1.33-.04-.33-.84-8.19,6.22-13.66.54-.42,1.3-.42,1.84,0,7.06,5.47,6.25,13.33,6.22,13.66-.09.82-.84,1.42-1.66,1.32-.82-.09-1.41-.83-1.32-1.66.03-.28.54-5.85-4.15-10.18-4.75,4.38-4.16,10.12-4.16,10.18.09.82-.5,1.57-1.32,1.66-.06,0-.11,0-.17,0Z"/>
    </g>
  </g>
</svg>