<?xml version="1.0" encoding="UTF-8"?>
<svg id="Layer_2" data-name="Layer 2" xmlns="http://www.w3.org/2000/svg" viewBox="0 0 81 81">
  <defs>
    <style>
      .cls-1 {
        fill: #bb6125;
      }
    </style>
  </defs>
  <g id="Layer_1-2" data-name="Layer 1">
    <g>
      <path class="cls-1" d="m79.5,38.79c-.36,0-.72-.13-1.01-.39L40.38,3.53,2.51,38.17c-.61.56-1.56.52-2.12-.09-.56-.61-.52-1.56.09-2.12L39.36.39c.57-.52,1.45-.52,2.03,0l39.12,35.79c.61.56.65,1.51.09,2.12-.3.32-.7.49-1.11.49Z"/>
      <path class="cls-1" d="m71.6,81H9.15c-.83,0-1.5-.67-1.5-1.5V30.29c0-.83.67-1.5,1.5-1.5s1.5.67,1.5,1.5v47.71h59.46V30.29c0-.83.67-1.5,1.5-1.5s1.5.67,1.5,1.5v49.21c0,.83-.67,1.5-1.5,1.5Z"/>
      <path class="cls-1" d="m66.88,27.09c-.83,0-1.5-.67-1.5-1.5V6.08h-9.46v8c0,.83-.67,1.5-1.5,1.5s-1.5-.67-1.5-1.5V4.58c0-.83.67-1.5,1.5-1.5h12.46c.83,0,1.5.67,1.5,1.5v21.01c0,.83-.67,1.5-1.5,1.5Z"/>
      <path class="cls-1" d="m40.5,67.78c-11.77,0-21.34-9.57-21.34-21.34s9.57-21.34,21.34-21.34,21.34,9.57,21.34,21.34-9.57,21.34-21.34,21.34Zm0-39.69c-10.11,0-18.34,8.23-18.34,18.34s8.23,18.34,18.34,18.34,18.34-8.23,18.34-18.34-8.23-18.34-18.34-18.34Z"/>
      <path class="cls-1" d="m58.81,41.04H22.19c-.83,0-1.5-.67-1.5-1.5s.67-1.5,1.5-1.5h36.62c.83,0,1.5.67,1.5,1.5s-.67,1.5-1.5,1.5Z"/>
      <path class="cls-1" d="m58.81,54.84H22.19c-.83,0-1.5-.67-1.5-1.5s.67-1.5,1.5-1.5h36.62c.83,0,1.5.67,1.5,1.5s-.67,1.5-1.5,1.5Z"/>
      <path class="cls-1" d="m40.5,67.78c-.23,0-.47-.05-.68-.17-.5-.26-.82-.77-.82-1.33V26.81c0-.83.67-1.5,1.5-1.5.28,0,.54.08.76.21.53-.31,1.21-.28,1.71.13.38.31,9.34,7.79,9.34,20.78s-10.49,20.74-10.94,21.06c-.26.19-.57.28-.88.28Zm1.5-38.93v34.08c2.87-2.91,7.31-8.68,7.31-16.5,0-9.21-5.16-15.4-7.31-17.58Z"/>
      <path class="cls-1" d="m40.5,67.78c-.3,0-.61-.09-.87-.28-.45-.32-10.94-8.01-10.94-21.06s8.99-20.47,9.37-20.78c.64-.52,1.59-.43,2.11.21.52.64.43,1.59-.21,2.11-.12.1-8.27,6.95-8.27,18.46s9.59,18.56,9.69,18.62c.67.48.83,1.42.34,2.09-.29.41-.75.62-1.22.62Z"/>
    </g>
  </g>
</svg>